<svg fill="none" height="44" viewBox="0 0 44 44" width="44" xmlns="http://www.w3.org/2000/svg">
    <path
        d="M8.2717 8.77082C8.25986 8.48675 8.48696 8.25 8.77127 8.25H35.2287C35.513 8.25 35.7401 8.48675 35.7283 8.77082L34.395 40.7708C34.3838 41.0386 34.1634 41.25 33.8954 41.25H10.1046C9.83656 41.25 9.61619 41.0386 9.60503 40.7708L8.2717 8.77082Z"
        fill="white" stroke="#1F2677" stroke-miterlimit="10" />
    <rect fill="#FE7565" height="20.625" width="2.75" x="20.625" y="15.125" />
    <rect fill="#FE7565" height="20.625" width="2.75" x="27.5" y="15.125" />
    <rect fill="#FE7565" height="20.625" width="2.75" x="13.75" y="15.125" />
    <rect height="5.5" rx="0.5" stroke="#1F2677" stroke-miterlimit="10" width="16.5" x="13.75"
        y="2.75" />
    <path
        d="M5.5 7.375C5.5 7.09886 5.72386 6.875 6 6.875H38C38.2761 6.875 38.5 7.09886 38.5 7.375V10.5C38.5 10.7761 38.2761 11 38 11H6C5.72386 11 5.5 10.7761 5.5 10.5V7.375Z"
        fill="white" stroke="#1F2677" stroke-miterlimit="10" />
</svg>
