<svg fill="none" height="44" viewBox="0 0 44 44" width="44" xmlns="http://www.w3.org/2000/svg">
    <path
        d="M38.8268 10.9327H19.7003V8.77107C19.7003 8.63286 19.6454 8.50032 19.5476 8.40259C19.4499 8.30487 19.3174 8.24995 19.1792 8.24995H8.2263C8.08809 8.24995 7.95555 8.30487 7.85782 8.40259C7.76009 8.50032 7.70518 8.63286 7.70518 8.77107V10.9327H4.6461C4.50789 10.9327 4.37535 10.9876 4.27762 11.0853C4.1799 11.183 4.125 11.3156 4.125 11.4538V35.0387C4.125 35.1769 4.1799 35.3094 4.27762 35.4071C4.37535 35.5049 4.50789 35.5598 4.6461 35.5598H38.8268C38.8952 35.5598 38.963 35.5463 39.0262 35.5201C39.0894 35.4939 39.1469 35.4555 39.1953 35.4071C39.2437 35.3588 39.2821 35.3013 39.3082 35.2381C39.3344 35.1748 39.3479 35.1071 39.3479 35.0387V11.4538C39.3479 11.3854 39.3344 11.3176 39.3082 11.2544C39.2821 11.1912 39.2437 11.1337 39.1953 11.0853C39.1469 11.0369 39.0894 10.9985 39.0262 10.9724C38.963 10.9462 38.8952 10.9327 38.8268 10.9327Z"
        fill="white" stroke="#1F2677" stroke-miterlimit="10" stroke-width="1.02034" />
    <path d="M24.0812 24.1147H7.53128V32.4813H24.0812V24.1147Z" fill="#FFD56E" />
</svg>
