<svg fill="none" height="44" viewBox="0 0 44 44" width="44" xmlns="http://www.w3.org/2000/svg">
    <path
        d="M21.7154 4.32203L4.3404 16.3509C4.2055 16.4443 4.125 16.5979 4.125 16.762V29.75C4.125 30.0261 4.34886 30.25 4.625 30.25H39.375C39.6511 30.25 39.875 30.0261 39.875 29.75V22.6875V16.762C39.875 16.5979 39.7945 16.4443 39.6596 16.3509L22.2846 4.32203C22.1134 4.2035 21.8866 4.2035 21.7154 4.32203Z"
        stroke="#1F2677" stroke-miterlimit="10" />
    <rect fill="#FFD56E" height="22" width="24.75" x="9.625" y="8.25" />
    <path
        d="M4.125 16.5L21.7264 28.0086C21.8926 28.1173 22.1074 28.1173 22.2736 28.0086L39.875 16.5V38C39.875 38.2761 39.6511 38.5 39.375 38.5H4.625C4.34886 38.5 4.125 38.2761 4.125 38V16.5Z"
        fill="white" />
    <path
        d="M4.125 16.5L21.7264 28.0086C21.8926 28.1173 22.1074 28.1173 22.2736 28.0086L39.875 16.5V38C39.875 38.2761 39.6511 38.5 39.375 38.5H4.625C4.34886 38.5 4.125 38.2761 4.125 38V16.5Z"
        stroke="#1F2677" stroke-linejoin="round" stroke-miterlimit="10" />
    <path
        d="M15.6656 15.1418L15.951 14.749L15.6656 15.1418L18.9147 17.5025L17.6737 21.3221C17.4641 21.967 18.2022 22.5033 18.7508 22.1047L22 19.7441L25.2492 22.1047C25.7978 22.5033 26.5359 21.967 26.3263 21.3221L25.0853 17.5025L28.3344 15.1418C28.883 14.7432 28.6011 13.8755 27.923 13.8755H23.9068L22.6657 10.0559C22.4562 9.41099 21.5438 9.41098 21.3343 10.0559L20.0932 13.8755H16.077C15.3989 13.8755 15.117 14.7432 15.6656 15.1418Z"
        fill="white" stroke="#1F2677" stroke-linejoin="round" stroke-miterlimit="10" />
</svg>
