<svg fill="none" height="14" viewBox="0 0 13 14" width="13" xmlns="http://www.w3.org/2000/svg">
    <path clip-rule="evenodd"
        d="M9.19096 8.62143C9.81426 7.77661 10.1827 6.73224 10.1827 5.60182C10.1827 2.78996 7.90319 0.51049 5.09133 0.51049C2.27947 0.51049 0 2.78996 0 5.60182C0 8.41368 2.27947 10.6931 5.09133 10.6931C6.22174 10.6931 7.26611 10.3247 8.11093 9.70146L11.6753 13.2658C11.9735 13.5641 12.4571 13.5641 12.7553 13.2658C13.0536 12.9676 13.0536 12.484 12.7553 12.1858L9.19096 8.62143ZM5.09133 9.67488C7.34082 9.67488 9.16439 7.85131 9.16439 5.60182C9.16439 3.35233 7.34082 1.52876 5.09133 1.52876C2.84184 1.52876 1.01827 3.35233 1.01827 5.60182C1.01827 7.85131 2.84184 9.67488 5.09133 9.67488Z"
        fill="#97A1B5" fill-rule="evenodd" />
</svg>
